<svg width="372" height="330" viewBox="0 0 372 330" fill="none" xmlns="http://www.w3.org/2000/svg">
<path d="M153.09 141.02C153.464 141.41 156.145 139.42 156.674 139.059C177.244 125.099 231.362 87.463 231.362 87.463C231.362 87.463 232.056 105.162 230.314 113.823C227.674 126.94 221.488 135.18 211.046 143.042C196.354 154.108 179.393 163.685 165.024 174.98C164.492 175.398 163.998 175.839 163.551 176.352C163.551 176.704 168.422 180.057 169.147 180.573C183.598 190.863 200.223 200.9 213.904 211.874C230.218 224.959 232.846 243.559 231.375 263.517C231.331 264.129 231.195 264.665 231.039 265.244L230.101 265.08L153.86 212.001L153.083 212.483V256.057H119.174L118.886 189.076C118.613 188.626 117.022 188.582 116.506 188.553C101.098 187.748 90.0536 190.626 75.8556 181.961C65.6796 175.75 58.8756 164.291 51.7106 155.075L52.1486 154.33H118.224L104.606 136.416C97.1836 128.166 85.4966 122.12 74.3286 121.375C53.2956 119.971 37.3996 125.584 19.1996 110.905C13.4726 106.287 5.00158 95.3 0.840579 89.016C0.454579 88.433 -0.103427 87.948 0.0165734 87.146H152.608L153.083 87.621V141.02H153.09Z" fill="#C12423"/>
<path d="M141.682 70.667C141.349 70.363 143.9 66.972 144.274 66.446C154.143 52.575 166.737 39.819 182.877 33.583C182.949 32.987 182.249 33.361 181.916 33.415C174.136 34.613 165.434 38.441 158.82 42.646L151.506 47.847C154.048 41.787 156.415 35.002 159.806 29.371C161.752 26.1448 164.303 23.7553 167.031 21.2328C157.984 17.2746 151.68 9.8241 149.918 0C153.873 1.4261 157.689 3.3402 161.824 4.4113C177.971 8.5913 193.648 5.2733 209.665 6.6424C216.751 7.2477 222.046 12.3847 224.376 18.8401C231.74 19.0683 240.763 20.3074 245.244 26.8357C248.815 32.036 248.882 37.319 248.153 43.413C247.877 43.743 245.855 41.236 245.453 40.887C238.335 34.758 225.545 38.089 220.449 45.337C216.069 51.567 216.586 57.693 218.915 64.573C219.917 67.527 221.584 70.242 222.446 73.155L193.335 93.481C193.062 84.709 193.914 75.928 196.342 67.495L199.828 56.72C190.419 69.048 186.613 84.37 184.284 99.487L169.563 109.96V77.477C173.55 68.094 178.567 59.338 185.101 51.501C187.133 49.064 189.586 46.953 191.43 44.364C187.852 45.99 184.483 48.547 181.454 51.022C174.776 56.479 168.416 63.34 163.859 70.664H141.676L141.682 70.667ZM223.444 19.0112H202.211C203.054 22.2215 206.962 25.6061 210.292 25.6916C214.2 25.793 216.535 22.7698 219.546 20.9729L223.447 19.0112H223.444Z" fill="#02214D"/>
<path d="M248.32 87.146H371.438C371.676 87.349 369.623 89.913 369.347 90.283C357.818 105.536 347.702 119.528 326.612 121.071L245.63 121.055C246.802 117.417 247.895 113.066 248.551 108.1C249.654 99.756 249.15 92.546 248.323 87.149L248.32 87.146Z" fill="#02214D"/>
<path d="M319.783 154.647L308.051 170.328C298.506 181.708 286.802 187.853 271.787 188.572C251.562 189.539 230.583 187.809 210.279 188.572C208.431 188.401 203.652 184.697 201.795 183.429C199.276 181.705 194.551 178.793 192.554 176.825C192.25 176.524 191.952 176.416 192.076 175.887L222.971 154.647H319.786H319.783Z" fill="#02214D"/>
<path d="M169.569 243.064L223.449 280.307L185.421 329.58L142.318 273.009L169.569 272.378V243.064Z" fill="#02214D"/>
</svg>
