<svg viewBox="0 0 741 574" fill="none" xmlns="http://www.w3.org/2000/svg">
<path d="M57.3156 436.9V437.257C54.0468 437.792 52.5016 439.099 52.3233 442.249C51.9667 447.955 51.9667 451.877 51.9667 458.296C51.9667 464.715 51.9667 468.637 52.3233 474.343C52.5016 477.552 54.0468 478.8 57.3156 479.335V479.692C54.2846 479.454 51.6101 479.335 49.2328 479.335C46.796 479.335 44.181 479.454 41.1499 479.692V479.335C44.3593 478.8 45.964 477.493 46.1423 474.283C46.4394 468.934 46.4989 464.358 46.4989 458.296C46.4989 452.234 46.4394 447.657 46.1423 442.309C45.964 439.099 44.3593 437.792 41.1499 437.257V436.9C44.181 437.138 46.796 437.257 49.2328 437.257C51.6101 437.257 54.2846 437.138 57.3156 436.9ZM100.834 437.197C102.855 437.197 104.638 437.078 107.491 436.841V437.197C104.519 437.732 102.914 438.802 102.736 442.13C102.439 447.123 102.261 450.867 102.261 458.593C102.261 465.012 102.261 473.273 102.439 480.167H102.32C92.5731 469.469 82.113 458.771 71.1179 448.073V457.226C71.1179 465.19 71.2368 469.053 71.534 474.343C71.7123 477.79 73.3169 478.86 76.2291 479.394V479.751C73.3169 479.513 71.4745 479.394 69.4538 479.394C67.4331 479.394 65.769 479.513 62.8568 479.751V479.394C65.8284 478.86 67.3737 477.79 67.552 474.343C67.8491 469.113 68.0274 465.19 68.0274 457.226C68.0274 451.045 68.0274 442.606 67.8491 436.425H67.968C78.4876 447.539 88.9477 458.177 99.289 468.459V458.355C99.289 450.689 99.1701 447.063 98.873 442.19C98.6353 438.802 97.0306 437.732 94.1184 437.197V436.841C96.9711 437.078 98.873 437.197 100.834 437.197ZM123.316 480.167C118.442 480.167 115.173 478.325 112.915 476.661C113.093 474.105 113.153 471.906 112.915 469.172H113.271C114.52 475.294 118.858 477.909 123.375 477.909C127.654 477.909 131.458 475.71 131.458 470.777C131.458 460.495 113.866 458.177 113.866 446.588C113.866 439.753 119.928 436.425 126.228 436.425C129.794 436.425 132.468 437.494 134.43 438.624C134.132 440.704 134.073 443.557 134.43 445.815H134.073C133.063 440.288 129.556 438.683 126.109 438.683C121.414 438.683 119.215 441.536 119.215 444.745C119.215 453.957 136.866 456.394 136.866 468.518C136.866 475.65 130.864 480.167 123.316 480.167ZM179.807 435.236H180.163C179.331 438.267 178.678 441.833 178.44 444.032H178.083C178.321 441.536 177.964 440.05 175.231 439.753C172.913 439.456 168.039 439.277 163.998 439.218C163.76 444.805 163.701 451.342 163.701 458.474C163.701 464.952 163.76 468.934 164.057 474.64C164.235 477.849 165.781 479.038 169.05 479.573V479.929C166.018 479.692 163.403 479.573 160.967 479.573C158.589 479.573 155.974 479.692 152.943 479.929V479.573C156.153 479.038 157.757 477.849 157.936 474.58C158.233 469.231 158.233 464.536 158.233 458.474C158.233 451.818 158.173 444.983 157.936 439.218C153.954 439.277 149.14 439.515 146.822 439.753C143.969 440.109 143.256 441.774 142.305 444.329L141.948 444.27C142.661 442.19 143.493 437.97 143.909 435.117H144.266C144.207 436.484 144.504 436.603 145.217 436.662C147.119 436.9 156.628 437.078 160.848 437.078C165.068 437.078 175.706 436.9 177.846 436.603C178.975 436.484 179.51 436.306 179.807 435.236ZM201.776 436.9V437.257C198.508 437.792 196.962 439.099 196.784 442.249C196.428 447.955 196.428 451.877 196.428 458.296C196.428 464.715 196.428 468.637 196.784 474.343C196.962 477.552 198.508 478.8 201.776 479.335V479.692C198.745 479.454 196.071 479.335 193.694 479.335C191.257 479.335 188.642 479.454 185.611 479.692V479.335C188.82 478.8 190.425 477.493 190.603 474.283C190.9 468.934 190.96 464.358 190.96 458.296C190.96 452.234 190.9 447.657 190.603 442.309C190.425 439.099 188.82 437.792 185.611 437.257V436.9C188.642 437.138 191.257 437.257 193.694 437.257C196.071 437.257 198.745 437.138 201.776 436.9ZM244.637 435.236H244.994C244.162 438.267 243.508 441.833 243.27 444.032H242.914C243.151 441.536 242.795 440.05 240.061 439.753C237.743 439.456 232.87 439.277 228.828 439.218C228.59 444.805 228.531 451.342 228.531 458.474C228.531 464.952 228.59 468.934 228.888 474.64C229.066 477.849 230.611 479.038 233.88 479.573V479.929C230.849 479.692 228.234 479.573 225.797 479.573C223.42 479.573 220.805 479.692 217.774 479.929V479.573C220.983 479.038 222.588 477.849 222.766 474.58C223.063 469.231 223.063 464.536 223.063 458.474C223.063 451.818 223.004 444.983 222.766 439.218C218.784 439.277 213.97 439.515 211.652 439.753C208.799 440.109 208.086 441.774 207.135 444.329L206.779 444.27C207.492 442.19 208.324 437.97 208.74 435.117H209.096C209.037 436.484 209.334 436.603 210.047 436.662C211.949 436.9 221.458 437.078 225.678 437.078C229.898 437.078 240.536 436.9 242.676 436.603C243.805 436.484 244.34 436.306 244.637 435.236ZM285.685 437.197C287.705 437.197 289.726 437.078 292.579 436.841V437.197C289.607 437.554 287.884 438.624 287.705 442.071C287.408 447.539 287.289 456.097 287.289 462.872C287.289 474.224 281.762 480.167 271.48 480.167C260.901 480.167 255.077 473.867 255.077 462.278C255.077 454.908 255.077 447.539 254.72 442.071C254.542 438.861 252.997 437.792 249.728 437.197V436.841C252.818 437.078 255.374 437.197 257.811 437.197C260.248 437.197 262.863 437.078 265.894 436.841V437.197C262.684 437.792 261.08 438.802 260.901 442.071C260.545 447.776 260.545 455.205 260.545 462.516C260.545 472.857 264.408 477.671 272.312 477.671C279.86 477.671 284.021 473.273 284.021 463.11C284.021 457.286 283.902 447.182 283.664 442.13C283.486 438.624 281.703 437.554 278.731 437.197V436.841C281.584 437.078 283.486 437.197 285.685 437.197ZM335.353 435.236H335.71C334.878 438.267 334.224 441.833 333.986 444.032H333.63C333.867 441.536 333.511 440.05 330.777 439.753C328.459 439.456 323.586 439.277 319.544 439.218C319.306 444.805 319.247 451.342 319.247 458.474C319.247 464.952 319.306 468.934 319.604 474.64C319.782 477.849 321.327 479.038 324.596 479.573V479.929C321.565 479.692 318.95 479.573 316.513 479.573C314.136 479.573 311.521 479.692 308.49 479.929V479.573C311.699 479.038 313.304 477.849 313.482 474.58C313.779 469.231 313.779 464.536 313.779 458.474C313.779 451.818 313.72 444.983 313.482 439.218C309.5 439.277 304.686 439.515 302.368 439.753C299.515 440.109 298.802 441.774 297.851 444.329L297.495 444.27C298.208 442.19 299.04 437.97 299.456 435.117H299.813C299.753 436.484 300.05 436.603 300.763 436.662C302.665 436.9 312.175 437.078 316.394 437.078C320.614 437.078 331.252 436.9 333.392 436.603C334.521 436.484 335.056 436.306 335.353 435.236ZM360.436 480.167C347.539 480.167 337.852 470.777 337.852 458.296C337.852 445.637 347.42 436.425 360.08 436.425C372.917 436.425 382.664 445.815 382.664 458.296C382.664 470.955 373.155 480.167 360.436 480.167ZM360.912 477.968C370.183 477.968 376.661 470.004 376.661 459.544C376.661 448.846 370.183 438.624 359.604 438.624C350.273 438.624 343.795 446.588 343.795 457.048C343.795 467.746 350.333 477.968 360.912 477.968ZM435.645 441.952L421.143 456.216C437.547 473.511 438.201 478.562 447.294 479.335V479.692C429.345 479.692 433.089 476.423 415.378 458.355L431.366 442.309C433.981 439.634 433.149 437.792 429.523 437.197V436.841C431.128 437.019 433.803 437.197 436.002 437.197C438.201 437.197 439.984 437.078 442.361 436.841V437.197C440.281 437.673 438.141 439.515 435.645 441.952ZM414.665 474.343C414.844 477.552 416.389 478.8 419.658 479.335V479.692C416.627 479.454 413.952 479.335 411.575 479.335C409.138 479.335 406.523 479.454 403.492 479.692V479.335C406.701 478.8 408.306 477.493 408.484 474.283C408.781 468.934 408.841 464.358 408.841 458.296C408.841 452.234 408.781 447.657 408.484 442.309C408.306 439.099 406.701 437.792 403.492 437.257V436.9C406.523 437.138 409.138 437.257 411.575 437.257C413.952 437.257 416.627 437.138 419.658 436.9V437.257C416.389 437.792 414.844 439.099 414.665 442.249C414.309 447.955 414.309 451.877 414.309 458.296C414.309 464.715 414.309 468.637 414.665 474.343ZM477.195 470.836L477.552 470.896C477.254 473.808 477.254 476.601 477.552 479.692C472.262 479.335 468.637 479.394 464.655 479.394C460.91 479.394 453.838 479.454 450.272 479.751V479.394C453.422 478.86 455.086 477.79 455.264 474.343C455.561 468.875 455.561 464.833 455.561 458.296C455.561 452.471 455.561 447.657 455.264 442.309C455.086 439.04 453.481 437.732 450.331 437.197V436.841C453.957 437.138 459.009 437.197 464.655 437.197C468.934 437.197 473.867 437.078 477.314 436.841C477.135 439.159 477.076 442.19 477.314 444.983H476.957C476.066 440.228 473.748 439.159 468.042 439.159C466.2 439.159 463.941 439.218 461.386 439.515C461.089 447.42 461.029 451.283 461.029 456.156C462.812 456.216 464.714 456.216 467.805 456.156C471.905 456.097 472.678 454.492 473.332 451.877L473.688 451.937C473.51 453.66 473.332 455.443 473.332 457.107C473.332 458.771 473.451 460.554 473.688 462.218L473.332 462.278C472.559 459.425 471.965 458.296 467.805 458.177C465.368 458.118 463.169 458.118 461.029 458.118V458.296C461.029 464.774 461.089 469.529 461.267 472.738C461.564 476.779 464.536 477.136 469.112 477.136C473.986 477.136 475.947 476.126 477.195 470.836ZM522.551 437.197C524.572 437.197 526.355 437.078 529.207 436.841V437.197C526.236 437.732 524.631 438.802 524.453 442.13C524.156 447.123 523.977 450.867 523.977 458.593C523.977 465.012 523.977 473.273 524.156 480.167H524.037C514.29 469.469 503.83 458.771 492.835 448.073V457.226C492.835 465.19 492.953 469.053 493.251 474.343C493.429 477.79 495.034 478.86 497.946 479.394V479.751C495.034 479.513 493.191 479.394 491.17 479.394C489.15 479.394 487.486 479.513 484.573 479.751V479.394C487.545 478.86 489.09 477.79 489.269 474.343C489.566 469.113 489.744 465.19 489.744 457.226C489.744 451.045 489.744 442.606 489.566 436.425H489.685C500.204 447.539 510.664 458.177 521.006 468.459V458.355C521.006 450.689 520.887 447.063 520.59 442.19C520.352 438.802 518.747 437.732 515.835 437.197V436.841C518.688 437.078 520.59 437.197 522.551 437.197ZM570.434 437.197C572.454 437.197 574.237 437.078 577.09 436.841V437.197C574.118 437.732 572.514 438.802 572.335 442.13C572.038 447.123 571.86 450.867 571.86 458.593C571.86 465.012 571.86 473.273 572.038 480.167H571.919C562.172 469.469 551.712 458.771 540.717 448.073V457.226C540.717 465.19 540.836 469.053 541.133 474.343C541.312 477.79 542.916 478.86 545.828 479.394V479.751C542.916 479.513 541.074 479.394 539.053 479.394C537.032 479.394 535.368 479.513 532.456 479.751V479.394C535.428 478.86 536.973 477.79 537.151 474.343C537.448 469.113 537.627 465.19 537.627 457.226C537.627 451.045 537.627 442.606 537.448 436.425H537.567C548.087 447.539 558.547 458.177 568.888 468.459V458.355C568.888 450.689 568.77 447.063 568.472 442.19C568.235 438.802 566.63 437.732 563.718 437.197V436.841C566.57 437.078 568.472 437.197 570.434 437.197ZM609.758 470.836L610.114 470.896C609.817 473.808 609.817 476.601 610.114 479.692C604.825 479.335 601.199 479.394 597.217 479.394C593.473 479.394 586.401 479.454 582.835 479.751V479.394C585.985 478.86 587.649 477.79 587.827 474.343C588.124 468.875 588.124 464.833 588.124 458.296C588.124 452.471 588.124 447.657 587.827 442.309C587.649 439.04 586.044 437.732 582.894 437.197V436.841C586.519 437.138 591.571 437.197 597.217 437.197C601.496 437.197 606.429 437.078 609.876 436.841C609.698 439.159 609.639 442.19 609.876 444.983H609.52C608.628 440.228 606.311 439.159 600.605 439.159C598.763 439.159 596.504 439.218 593.949 439.515C593.651 447.42 593.592 451.283 593.592 456.156C595.375 456.216 597.277 456.216 600.367 456.156C604.468 456.097 605.241 454.492 605.895 451.877L606.251 451.937C606.073 453.66 605.895 455.443 605.895 457.107C605.895 458.771 606.013 460.554 606.251 462.218L605.895 462.278C605.122 459.425 604.528 458.296 600.367 458.177C597.931 458.118 595.732 458.118 593.592 458.118V458.296C593.592 464.774 593.651 469.529 593.83 472.738C594.127 476.779 597.098 477.136 601.675 477.136C606.548 477.136 608.51 476.126 609.758 470.836ZM634.54 436.841C649.161 436.841 658.67 445.28 658.67 457.702C658.67 469.41 650.23 479.751 636.323 479.751C633.708 479.751 629.607 479.394 626.279 479.394C623.486 479.394 619.444 479.573 617.602 479.751V479.394C620.871 478.86 622.297 477.849 622.475 474.462C622.772 470.182 622.772 465.428 622.772 458.355C622.772 451.639 622.772 446.409 622.475 442.13C622.297 438.683 620.752 437.732 617.542 437.197V436.841C619.325 437.019 622.416 437.197 624.793 437.197C627.408 437.197 630.974 436.841 634.54 436.841ZM636.799 477.552C646.843 477.552 652.548 468.994 652.548 458.831C652.548 448.608 646.783 438.98 634.124 438.98C632.638 438.98 630.558 439.099 628.656 439.337C628.3 447.657 628.24 452.293 628.24 458.593C628.24 465.368 628.3 469.41 628.537 472.738C628.894 476.661 632.876 477.552 636.799 477.552ZM694.922 437.197C697.3 437.197 699.083 437.078 700.925 436.841V437.197C697.894 438.029 696.705 439.04 694.506 442.368C691.535 446.885 687.612 452.947 683.571 459.603C683.571 464.952 683.571 469.469 683.868 474.58C684.046 477.849 685.591 479.038 688.86 479.573V479.929C685.889 479.692 683.452 479.632 680.837 479.632C678.162 479.632 675.726 479.692 672.754 479.929V479.573C675.963 479.097 677.568 477.849 677.746 474.64C677.984 469.885 678.103 465.606 678.103 460.851C674.002 454.076 669.901 447.301 666.692 442.368C664.493 438.98 663.185 437.673 660.57 437.197V436.841C662.948 437.078 665.86 437.197 668.296 437.197C670.614 437.197 673.229 437.078 676.617 436.841V437.197C672.397 437.792 671.03 439.099 672.992 442.368L682.144 457.345C685.591 451.699 688.801 446.409 691.178 442.368C693.318 438.802 691.713 437.732 687.969 437.197V436.841C690.524 437.078 692.723 437.197 694.922 437.197Z" fill="#02214D"></path>
<path d="M337.5 213.02C337.874 213.41 340.555 211.42 341.084 211.059C361.654 197.099 415.772 159.463 415.772 159.463C415.772 159.463 416.466 177.162 414.724 185.823C412.084 198.94 405.898 207.18 395.456 215.042C380.764 226.108 363.803 235.685 349.434 246.98C348.902 247.398 348.408 247.839 347.961 248.352C347.961 248.704 352.832 252.057 353.557 252.573C368.008 262.863 384.633 272.9 398.314 283.874C414.628 296.959 417.256 315.559 415.785 335.517C415.741 336.129 415.605 336.665 415.449 337.244L414.511 337.08L338.27 284.001L337.493 284.483V328.057H303.584L303.296 261.076C303.023 260.626 301.432 260.582 300.916 260.553C285.508 259.748 274.464 262.626 260.266 253.961C250.09 247.75 243.286 236.291 236.121 227.075L236.559 226.33H302.634L289.016 208.416C281.594 200.166 269.907 194.12 258.739 193.375C237.706 191.971 221.81 197.584 203.61 182.905C197.883 178.287 189.412 167.3 185.251 161.016C184.865 160.433 184.307 159.948 184.427 159.146H337.018L337.493 159.621V213.02H337.5Z" fill="#C12423"></path>
<path d="M326.092 142.667C325.759 142.363 328.31 138.972 328.684 138.446C338.553 124.575 351.147 111.819 367.287 105.583C367.359 104.987 366.659 105.361 366.326 105.415C358.546 106.613 349.844 110.441 343.23 114.646L335.916 119.847C338.458 113.787 340.825 107.002 344.216 101.371C346.162 98.1448 348.713 95.7553 351.441 93.2328C342.394 89.2746 336.09 81.8241 334.328 72C338.283 73.4261 342.099 75.3402 346.234 76.4113C362.381 80.5913 378.058 77.2733 394.075 78.6424C401.161 79.2477 406.456 84.3847 408.786 90.8401C416.15 91.0683 425.173 92.3074 429.654 98.8357C433.225 104.036 433.292 109.319 432.563 115.413C432.287 115.743 430.265 113.236 429.863 112.887C422.745 106.758 409.955 110.089 404.859 117.337C400.479 123.567 400.996 129.693 403.325 136.573C404.327 139.527 405.994 142.242 406.856 145.155L377.745 165.481C377.472 156.709 378.324 147.928 380.752 139.495L384.238 128.72C374.829 141.048 371.023 156.37 368.694 171.487L353.973 181.96V149.477C357.96 140.094 362.977 131.338 369.511 123.501C371.543 121.064 373.996 118.953 375.84 116.364C372.262 117.99 368.893 120.547 365.864 123.022C359.186 128.479 352.826 135.34 348.269 142.664H326.086L326.092 142.667ZM407.854 91.0112H386.621C387.464 94.2215 391.372 97.6061 394.702 97.6916C398.61 97.793 400.945 94.7698 403.956 92.9729L407.857 91.0112H407.854Z" fill="#02214D"></path>
<path d="M432.73 159.146H555.848C556.086 159.349 554.033 161.913 553.757 162.283C542.228 177.536 532.112 191.528 511.022 193.071L430.04 193.055C431.212 189.417 432.305 185.066 432.961 180.1C434.064 171.756 433.56 164.546 432.733 159.149L432.73 159.146Z" fill="#02214D"></path>
<path d="M504.193 226.647L492.461 242.328C482.916 253.708 471.212 259.853 456.197 260.572C435.972 261.539 414.993 259.809 394.689 260.572C392.841 260.401 388.062 256.697 386.205 255.429C383.686 253.705 378.961 250.793 376.964 248.825C376.66 248.524 376.362 248.416 376.486 247.887L407.381 226.647H504.196H504.193Z" fill="#02214D"></path>
<path d="M353.979 315.064L407.859 352.307L369.831 401.58L326.728 345.009L353.979 344.378V315.064Z" fill="#02214D"></path>
<path d="M706.215 440.862V442.445H705.333V438.167H706.57C706.845 438.167 707.079 438.199 707.274 438.262C707.468 438.326 707.626 438.414 707.749 438.528C707.871 438.641 707.96 438.775 708.016 438.93C708.072 439.085 708.1 439.253 708.1 439.435C708.1 439.574 708.083 439.705 708.05 439.828C708.017 439.952 707.968 440.066 707.903 440.171C707.837 440.275 707.757 440.369 707.662 440.451C707.568 440.533 707.458 440.601 707.335 440.653C707.394 440.687 707.449 440.728 707.501 440.777C707.552 440.826 707.597 440.885 707.635 440.956L708.444 442.444H707.645C707.498 442.444 707.391 442.382 707.327 442.257L706.695 441.015C706.668 440.96 706.635 440.921 706.598 440.897C706.56 440.874 706.507 440.862 706.44 440.862H706.215L706.215 440.862ZM706.215 440.178H706.57C706.69 440.178 706.792 440.161 706.877 440.127C706.961 440.092 707.03 440.045 707.084 439.984C707.138 439.923 707.177 439.853 707.202 439.771C707.226 439.69 707.238 439.602 707.238 439.508C707.238 439.321 707.184 439.174 707.075 439.068C706.966 438.962 706.798 438.91 706.57 438.91H706.215V440.178H706.215Z" fill="#02214D"></path>
<path d="M706.694 444C704.657 444 703 442.43 703 440.5C703 438.57 704.657 437 706.694 437C708.732 437 710.389 438.57 710.389 440.5C710.389 442.43 708.732 444 706.694 444V444ZM706.694 437.414C704.898 437.414 703.437 438.798 703.437 440.5C703.437 442.202 704.898 443.586 706.694 443.586C708.491 443.586 709.952 442.202 709.952 440.5C709.952 438.798 708.491 437.414 706.694 437.414Z" fill="#02214D"></path>
    </svg>